<svg id="Layer_1" data-name="Layer 1" xmlns="http://www.w3.org/2000/svg" viewBox="0 0 100 100"><defs><style>.cls-1{fill:#231f20;}.cls-2{fill:none;stroke:#231f20;stroke-miterlimit:10;}</style></defs><ellipse class="cls-1" cx="10.47" cy="25.46" rx="5.54" ry="3.04" transform="translate(-6.79 4.01) rotate(-16.46)"/><path class="cls-2" d="M12.09,23.1c-.31-1.74,1.2-3.57,3.34-4.05"/><path class="cls-2" d="M11.09,22.57l.78-4.08"/><path class="cls-2" d="M10.5,23.36a2.93,2.93,0,0,1-1.07-2.59"/><path class="cls-2" d="M9.93,23.37a4.23,4.23,0,0,1-2.82-2.29,1.7,1.7,0,0,1,.16-1.8"/><path class="cls-2" d="M13.53,23.08a23.5,23.5,0,0,1,2.14-2.79"/><path class="cls-2" d="M7.71,23.63a22.55,22.55,0,0,1-3.16-3"/><path class="cls-2" d="M7,24.07a8.44,8.44,0,0,1-4.33-1.86"/><path class="cls-2" d="M6.42,24.8,2,23.71"/><path class="cls-2" d="M6.5,25.17a23.26,23.26,0,0,0-5,2.33"/><path class="cls-2" d="M6.18,26.62a10.74,10.74,0,0,0-2.74,2.43"/><path class="cls-2" d="M14.5,23.94A4.13,4.13,0,0,0,17,23.76a5.76,5.76,0,0,0,2.24-1.92"/><path class="cls-2" d="M14.8,24.41a4.06,4.06,0,0,1,3,2.19"/><path class="cls-2" d="M14.6,25.76a6.07,6.07,0,0,1,4.26,3.44"/><path class="cls-2" d="M14.06,25.82l-.53,3.89"/><path class="cls-2" d="M11.5,27.1a.81.81,0,0,1,.58.37,1.34,1.34,0,0,1,.17.58A5,5,0,0,1,11.67,31"/><path class="cls-2" d="M7.48,27.76a12.55,12.55,0,0,0-2.6,2.92"/><path class="cls-2" d="M9.42,27.29a5.61,5.61,0,0,0-2.25,4.55"/><path class="cls-2" d="M10.51,27.91,9.9,31.57l.13-.41"/><path class="cls-2" d="M14.74,24a10.56,10.56,0,0,0,3.72-3.4"/><path class="cls-2" d="M13.61,25.38a4.57,4.57,0,0,1,2,4"/><ellipse class="cls-1" cx="21.16" cy="19.17" rx="5.54" ry="3.04" transform="translate(-7.02 14.58) rotate(-32.93)"/><path class="cls-2" d="M22.05,16.44c-.79-1.58.13-3.76,2.05-4.83"/><path class="cls-2" d="M20.94,16.21l-.41-4.12"/><path class="cls-2" d="M20.6,17.14A2.92,2.92,0,0,1,18.84,15"/><path class="cls-2" d="M20.06,17.32a4.3,4.3,0,0,1-3.36-1.4,1.72,1.72,0,0,1-.35-1.78"/><path class="cls-2" d="M23.42,16a23.87,23.87,0,0,1,1.27-3.28"/><path class="cls-2" d="M18,18.19a21.77,21.77,0,0,1-3.88-2"/><path class="cls-2" d="M17.46,18.81a8.42,8.42,0,0,1-4.68-.55"/><path class="cls-2" d="M25,16.93a4.06,4.06,0,0,1,3.52,1.24"/><path class="cls-2" d="M25.21,18.29a6.05,6.05,0,0,1,5.06,2.08"/><path class="cls-2" d="M24.71,18.49l.59,3.89"/><path class="cls-2" d="M22.62,20.44a.84.84,0,0,1,.66.19,1.36,1.36,0,0,1,.33.52,5,5,0,0,1,.27,3"/><path class="cls-2" d="M20.68,21.22a5.62,5.62,0,0,0-.87,5"/><path class="cls-2" d="M21.9,21.51l.45,3.68v-.44"/><path class="cls-2" d="M24.15,18.2a4.52,4.52,0,0,1,3,3.25"/><ellipse class="cls-1" cx="31.34" cy="10.33" rx="5.54" ry="3.04" transform="translate(4.91 30.09) rotate(-55.03)"/><path class="cls-2" d="M31.13,7.47c-1.33-1.17-1.29-3.54.09-5.25"/><path class="cls-2" d="M30,7.67,28.09,4"/><path class="cls-2" d="M30.05,8.66A3,3,0,0,1,27.6,7.31"/><path class="cls-2" d="M29.62,9A4.24,4.24,0,0,1,26,9a1.72,1.72,0,0,1-1-1.51"/><path class="cls-2" d="M32.25,6.56A24.23,24.23,0,0,1,32.18,3"/><path class="cls-2" d="M28,10.61a22,22,0,0,1-4.34-.37"/><path class="cls-2" d="M27.78,11.39a8.56,8.56,0,0,1-4.55,1.25"/><path class="cls-2" d="M27.76,12.33l-4.17,1.94"/><path class="cls-2" d="M28.06,12.57a23.19,23.19,0,0,0-2.45,4.94"/><path class="cls-2" d="M28.71,13.91a10.72,10.72,0,0,0-.63,3.6"/><path class="cls-2" d="M33.54,6.62A4.09,4.09,0,0,0,35.36,5a5.83,5.83,0,0,0,.55-2.9"/><path class="cls-2" d="M34.07,6.8a4.06,4.06,0,0,1,3.73-.17"/><path class="cls-2" d="M34.76,8a6.07,6.07,0,0,1,5.47,0"/><path class="cls-2" d="M34.37,8.37l2,3.37"/><path class="cls-2" d="M33.17,11a.82.82,0,0,1,.68-.07,1.37,1.37,0,0,1,.5.35,5.09,5.09,0,0,1,1.37,2.65"/><path class="cls-2" d="M30.44,14a12.37,12.37,0,0,0-.21,3.91"/><path class="cls-2" d="M31.66,12.41a5.61,5.61,0,0,0,1.08,5"/><path class="cls-2" d="M32.9,12.22l1.8,3.24-.15-.41"/><path class="cls-2" d="M33.77,6.52a10.35,10.35,0,0,0,.78-5"/><path class="cls-2" d="M33.74,8.3a4.57,4.57,0,0,1,4,1.87"/></svg>