<svg id="Layer_1" data-name="Layer 1" xmlns="http://www.w3.org/2000/svg" viewBox="0 0 281.9 296.95"><defs><style>.cls-1{fill:#231f20;}</style></defs><path class="cls-1" d="M12.74,30.77C26.48,17.66,50.1,20,67.07,23.85c19.52,4.38,37.91,14.08,50.42,30a67.68,67.68,0,0,1,12.44,25.07c2.79,11.07,1.64,22.49,1.59,33.78-.09,21.11,4.13,44.46,15.51,62.59,10.8,17.22,29.55,26.31,48.89,16.68,9.36-4.66,16.35-13,21.78-21.73s11.2-19.36,8.57-30c-2.36-9.55-11.21-16.89-21.27-14.93-9.91,1.93-16.54,11.38-19.89,20.27-7.15,19,1,38.28,18.4,47.89,9.49,5.24,20.08,8.05,29.58,13.3,9.81,5.42,18.91,12.67,25.1,22.13s9.73,20.6,8.52,31.89c-1.24,11.66-7.38,22.14-14,31.51-5.62,7.87,7.39,15.37,13,7.57,11.72-16.44,19.05-35.32,15-55.68-3.75-19-16.6-34.87-32.3-45.64-7.85-5.39-16.48-9.14-25.28-12.66-7.36-2.93-15.54-6-20.83-12.16-5-5.9-5.73-14.16-3.6-21.39,1.1-3.73,8.64-18.19,12.62-9.79,3.54,7.48-5.52,19.28-9.72,25-5.17,7-12.91,13.64-22.08,13.68-17.66.07-25.53-23.76-29.11-37.36a120,120,0,0,1-3.82-31.11c.06-10.88.79-21.65-1-32.44-3-17.84-13.09-34.48-26.37-46.57C102.86,18.89,81.86,10.45,60.24,7.47c-20-2.76-42.63-2.07-58.1,12.69-7,6.68,3.62,17.28,10.6,10.61Z" transform="translate(0.15 -6.19)"/></svg>