<svg id="Layer_1" data-name="Layer 1" xmlns="http://www.w3.org/2000/svg" viewBox="0 0 100 100"><defs><style>.cls-1{fill:none;stroke:#231f20;stroke-miterlimit:10;}.cls-2{fill:#231f20;}</style></defs><path class="cls-1" d="M2.14,15.36c1.7-1.52,4.59-.72,6,1.05s1.82,4.15,2.14,6.4l7-2.32L14.92,10.43,22,6l1.58,2.45L32.87,6.7"/><path class="cls-2" d="M3.79,14.84V15A1.9,1.9,0,0,0,4,16a1.77,1.77,0,0,0,.52.8,1.77,1.77,0,0,0,.8.52,1.78,1.78,0,0,0,1,.21L7,17.44a2.52,2.52,0,0,0,1.1-.65l.39-.5A2.44,2.44,0,0,0,8.79,15v-.18a1.89,1.89,0,0,0-.21-1,1.92,1.92,0,0,0-.52-.8,1.92,1.92,0,0,0-.8-.52,1.89,1.89,0,0,0-1-.21l-.66.09a2.45,2.45,0,0,0-1.1.64l-.4.51a2.53,2.53,0,0,0-.34,1.26Z"/><path class="cls-2" d="M12.53,20.07V20c0-3.22-5-3.22-5,0v.11c0,3.22,5,3.23,5,0V20c0-3.22-5-3.22-5,0v.11c0,3.22,5,3.23,5,0Z"/><path class="cls-2" d="M10.78,25.57H11a1.88,1.88,0,0,0,1-.22,1.85,1.85,0,0,0,.81-.52,1.83,1.83,0,0,0,.51-.8,1.88,1.88,0,0,0,.22-1l-.09-.67a2.5,2.5,0,0,0-.64-1.1l-.51-.39A2.43,2.43,0,0,0,11,20.57h-.19a1.88,1.88,0,0,0-1,.21A2,2,0,0,0,9,21.3a1.89,1.89,0,0,0-.51.8,1.9,1.9,0,0,0-.22,1l.09.66A2.5,2.5,0,0,0,9,24.83l.51.4a2.53,2.53,0,0,0,1.26.34Z"/><path class="cls-2" d="M18.08,23.7c3.21,0,3.22-5,0-5s-3.23,5,0,5Z"/><path class="cls-2" d="M16.58,19.21c3.22,0,3.22-5,0-5s-3.22,5,0,5Z"/><path class="cls-2" d="M15.08,12.66c3.22,0,3.23-5,0-5s-3.22,5,0,5Z"/><path class="cls-2" d="M24,9.87l.38-.19a1.87,1.87,0,0,0,.7-.64,1.89,1.89,0,0,0,.45-.85,1.89,1.89,0,0,0,0-1,1.77,1.77,0,0,0-.3-.93l-.39-.5a2.52,2.52,0,0,0-1.1-.65L23.12,5a2.44,2.44,0,0,0-1.27.34l-.37.18a2,2,0,0,0-.7.65,1.89,1.89,0,0,0-.45.85,1.89,1.89,0,0,0,0,1,1.78,1.78,0,0,0,.29.92l.39.51a2.53,2.53,0,0,0,1.11.64l.66.09A2.43,2.43,0,0,0,24,9.87Z"/><path class="cls-2" d="M32,8.46h0l-.59-.25s0,0,0,0L31,7.86l.05,0-.39-.5,0,.06-.25-.6s0,0,0,.08l-.09-.66v.06l.09-.66s0,0,0,.06l.25-.6h0a1.86,1.86,0,0,0-.3.93,2,2,0,0,0,0,1,1.94,1.94,0,0,0,.45.85,1.87,1.87,0,0,0,.7.64l.6.25a2.5,2.5,0,0,0,1.33,0l.6-.25A2.53,2.53,0,0,0,35,7.68c.1-.21.19-.41.27-.63a0,0,0,0,1,0,0c0-.22.06-.46.09-.69v0a2.39,2.39,0,0,0,0-.36c0-.06,0-.24-.05-.36v0A4.78,4.78,0,0,0,35,4.93l0,0c-.13-.18-.26-.36-.41-.53l0,0A4.39,4.39,0,0,0,34,3.92h0a4.78,4.78,0,0,0-.62-.26h0a1.89,1.89,0,0,0-1-.05,1.86,1.86,0,0,0-.93.3,1.87,1.87,0,0,0-.7.64,1.94,1.94,0,0,0-.45.85l-.09.67a2.64,2.64,0,0,0,.34,1.26l.4.5a2.52,2.52,0,0,0,1.1.65Z"/><path class="cls-2" d="M33.63,5.38l.19.19a1.85,1.85,0,0,0,.8.52,2.32,2.32,0,0,0,1.93,0,1.92,1.92,0,0,0,.8-.52l.39-.51a2.41,2.41,0,0,0,.34-1.26L38,3.14A2.5,2.5,0,0,0,37.35,2l-.19-.19a1.77,1.77,0,0,0-.8-.52,2.32,2.32,0,0,0-1.93,0,1.77,1.77,0,0,0-.8.52l-.39.5a2.44,2.44,0,0,0-.34,1.27l.09.66a2.41,2.41,0,0,0,.64,1.1Z"/><path class="cls-2" d="M25.53,8.78l.17.16a1.77,1.77,0,0,0,.8.52,2.23,2.23,0,0,0,1.93,0,1.77,1.77,0,0,0,.8-.52l.39-.5A2.43,2.43,0,0,0,30,7.18l-.09-.67a2.41,2.41,0,0,0-.64-1.1l-.16-.17a1.93,1.93,0,0,0-.81-.51,1.88,1.88,0,0,0-1-.22,1.84,1.84,0,0,0-1,.22,1.93,1.93,0,0,0-.81.51l-.39.51A2.43,2.43,0,0,0,24.8,7l.09.66a2.48,2.48,0,0,0,.64,1.11Z"/><path class="cls-2" d="M4.9,16.81c3.22,0,3.23-5,0-5s-3.22,5,0,5Z"/><path class="cls-2" d="M3.91,17.47h.16a1.89,1.89,0,0,0,1-.21,1.85,1.85,0,0,0,.8-.52,1.82,1.82,0,0,0,.52-.8,1.8,1.8,0,0,0,.21-1l-.08-.66a2.55,2.55,0,0,0-.65-1.11l-.5-.39a2.54,2.54,0,0,0-1.27-.34H3.91a1.84,1.84,0,0,0-1,.22,1.93,1.93,0,0,0-.81.51,2,2,0,0,0-.52.81,2,2,0,0,0-.21,1l.09.67a2.5,2.5,0,0,0,.64,1.1l.51.39a2.43,2.43,0,0,0,1.26.34Z"/><path class="cls-2" d="M27.43,8.49h0l.09.66v0l-.09.66v0l-.25.6v0l-.39.51v0l-.5.39h0l-.6.25h.05l-.67.08h.06l-.67-.09h0l-.6-.25h0l-.51-.39,0,0-.39-.51v0l-.25-.6v0l-.09-.66v0l.09-.66h0a1.85,1.85,0,0,0,0,1,1.79,1.79,0,0,0,.29.93,1.9,1.9,0,0,0,.65.7,1.8,1.8,0,0,0,.85.45l.66.09a2.43,2.43,0,0,0,1.26-.34l.51-.39a2.5,2.5,0,0,0,.64-1.1,2.55,2.55,0,0,0,0-1.37A2.52,2.52,0,0,0,27,7.32h0a3.42,3.42,0,0,0-.52-.4,3.93,3.93,0,0,0-.62-.26h0a6.6,6.6,0,0,0-.68-.09h0c-.23,0-.46.06-.68.1h0a4.26,4.26,0,0,0-.62.26h0l-.26.2-.26.2a2.58,2.58,0,0,0-.66,1.14h0c0,.22-.07.45-.09.68h0c0,.22.06.45.09.67a1.89,1.89,0,0,0,.45.85,1.9,1.9,0,0,0,.7.65,1.85,1.85,0,0,0,.93.29,1.89,1.89,0,0,0,1,0l.6-.25a2.48,2.48,0,0,0,.89-.9l.26-.6a2.72,2.72,0,0,0,0-1.33Z"/></svg>