<svg id="Layer_1" data-name="Layer 1" xmlns="http://www.w3.org/2000/svg" viewBox="0 0 100 100"><defs><style>.cls-1{fill:none;stroke:#00a651;stroke-miterlimit:10;}</style></defs><path class="cls-1" d="M40.05,1.34l11.27.11"/><path class="cls-1" d="M40,3.13l11.25.29"/><path class="cls-1" d="M39.54,4.81l11.56.54"/><path class="cls-1" d="M39.54,6.38l11.29.81"/><path class="cls-1" d="M39.7,8.16l10.82,1"/><path class="cls-1" d="M39.31,10.08,50.2,11.17"/><path class="cls-1" d="M39,11.21,49.83,13"/><path class="cls-1" d="M38.3,13l11.1,1.54"/><path class="cls-1" d="M38,14.22l11.11,2"/><path class="cls-1" d="M37.61,15.7q3.66.53,7.59,1.34c1.14.24,2.27.5,3.37.76"/><path class="cls-1" d="M37,17l10.86,2.21"/><path class="cls-1" d="M36.57,18.65l10.85,2.79"/><path class="cls-1" d="M36.31,19.69l11.76,3.37"/><path class="cls-1" d="M35.85,21a108.92,108.92,0,0,0,10.77,4"/><path class="cls-1" d="M35.22,22.64l9.69,3.94"/><path class="cls-1" d="M34.68,24.15l8.37,3.63"/><path class="cls-1" d="M33.57,25.47,42.21,30"/><path class="cls-1" d="M32.45,26.93l8.15,5.44"/><path class="cls-1" d="M31.55,28.22l8.15,5.43"/><path class="cls-1" d="M30.18,29.27l8.08,5.54"/><path class="cls-1" d="M29.11,30.61l7.68,6.09"/><path class="cls-1" d="M27.76,31.7l7.58,6.21"/><path class="cls-1" d="M26.42,33l7.52,6.28"/><path class="cls-1" d="M25.19,34.07,32,41.13"/><path class="cls-1" d="M24.29,35l6.39,7.41"/><path class="cls-1" d="M23.07,36.14,29,44"/><path class="cls-1" d="M37.61,22.3,44,29.71"/><path class="cls-1" d="M21.24,36.69l5.87,7.74"/><path class="cls-1" d="M19.8,37.56c.78,1.3,1.6,2.61,2.44,3.94s1.58,2.46,2.37,3.64"/><path class="cls-1" d="M18,38.21l4.31,8.1"/><path class="cls-1" d="M16.08,38.31l3.66,8.31"/><path class="cls-1" d="M13.93,38.75l3.69,9"/><path class="cls-1" d="M11.62,38.94l3.06,8.79"/><path class="cls-1" d="M7.54,41.17l2.79,7.9"/><path class="cls-1" d="M5.81,41.48l1.57,7.06"/><path class="cls-1" d="M3.57,41l1.29,8.59V49.3"/><path class="cls-1" d="M1.75,40.75,2,50"/><path class="cls-1" d="M10.4,40a2.92,2.92,0,0,0-.08,1.85l1,5.86"/></svg>