<?xml version="1.0" encoding="utf-8"?>
<!-- Generator: Adobe Illustrator 16.0.0, SVG Export Plug-In . SVG Version: 6.00 Build 0)  -->
<!DOCTYPE svg PUBLIC "-//W3C//DTD SVG 1.1//EN" "http://www.w3.org/Graphics/SVG/1.1/DTD/svg11.dtd">
<!-- <svg version="1.1" id="Ebene_1" xmlns="http://www.w3.org/2000/svg" xmlns:xlink="http://www.w3.org/1999/xlink" x="0px" y="0px"
	 width="100px" height="100px" viewBox="0 0 100 100" enable-background="new 0 0 100 100" xml:space="preserve">
<path fill="#632181" d="M44.497,19.965l-3.376-3.318C31.246,6.397,17.306-0.002,1.945,0H0v14.94l1.945,0.062
	c11.167,0.004,21.185,4.612,28.38,12.059l0.005-0.005l3.375,3.24L44.497,19.965z"/>

</svg> -->

<!-- <svg id="Layer_1" data-name="Layer 1" xmlns="http://www.w3.org/2000/svg" viewBox="0 0 100 100"><defs><style>.cls-1{fill:none;stroke:#ed1c24;stroke-miterlimit:10;}</style></defs><path class="cls-1" d="M-.3.15A59.74,59.74,0,0,1,36,36.74"/></svg> -->
<!-- <svg id="Layer_1" data-name="Layer 1" xmlns="http://www.w3.org/2000/svg" viewBox="0 0 100 100"><defs><style>.cls-1{fill:none;stroke:#ed1c24;stroke-miterlimit:10;stroke-width:5px;}</style></defs><path class="cls-1" d="M1,3.45c.89.08,2.19.22,3.75.49,3.8.67,18.29,3.22,24.13,12.7,5.55,9,.83,20.26,6.52,22.76a5.28,5.28,0,0,0,1.7.41"/></svg> -->

<!-- <svg id="Layer_1" data-name="Layer 1" xmlns="http://www.w3.org/2000/svg" viewBox="0 0 100 100"><defs><style>.cls-1{fill:none;stroke:#ed1c24;stroke-miterlimit:10;stroke-width:5px;}</style></defs><path class="cls-1" d="M-.3.15A59.74,59.74,0,0,1,36,36.74"/></svg> -->

<svg id="Layer_1" data-name="Layer 1" xmlns="http://www.w3.org/2000/svg" viewBox="0 0 100 100"><defs><style>.cls-1{fill:none;stroke:#ed1c24;stroke-miterlimit:10;stroke-width:5px;}</style></defs><path class="cls-1" d="M10,11.76c.42,0,1,.1,1.77.23,1.8.32,7.34,1.16,10.79,5.14,2.81,3.23,0,10.08,3.71,11.63a2.78,2.78,0,0,0,.8.2"/></svg>