<?xml version="1.0" encoding="utf-8"?>
<!-- Generator: Adobe Illustrator 16.0.0, SVG Export Plug-In . SVG Version: 6.00 Build 0)  -->
<!DOCTYPE svg PUBLIC "-//W3C//DTD SVG 1.1//EN" "http://www.w3.org/Graphics/SVG/1.1/DTD/svg11.dtd">
<!-- <svg version="1.1" id="Ebene_1" xmlns="http://www.w3.org/2000/svg" xmlns:xlink="http://www.w3.org/1999/xlink" x="0px" y="0px"
	 width="100px" height="100px" viewBox="0 0 100 100" enable-background="new 0 0 100 100" xml:space="preserve">
<path fill="#FDC300" d="M0,25h2.121c2.756-0.004,4.993-2.24,4.999-4.999l0,0C7.114,17.242,4.878,15.005,2.121,15l0,0H0V0h2.121
	C13.168,0.006,22.114,8.952,22.12,20.001l0,0C22.114,31.048,13.168,39.996,2.121,40l0,0L0,40.002V25L0,25z M0,15v0.002V15L0,15z"/>
</svg> -->

<svg id="Layer_1" data-name="Layer 1" xmlns="http://www.w3.org/2000/svg" viewBox="0 0 100 100"><defs><style>.cls-1,.cls-2{fill:none;stroke:#231f20;stroke-miterlimit:10;}.cls-2{stroke-width:3px;}</style></defs><path class="cls-1" d="M1.76,2.36c8.75,1.33,14.64,9.2,13.68,17-.8,6.47-6.24,12-13.35,13.05"/><path class="cls-2" d="M4.19,2.81a1.47,1.47,0,0,0-1.5,0A1.29,1.29,0,0,0,2.09,4a.94.94,0,0,0,1.07.74.91.91,0,0,0,.5-.28,2.07,2.07,0,0,0,.53-1.66l-.91-.23"/><path class="cls-2" d="M7.43,3.79a1.16,1.16,0,0,0-1.29,1A1.2,1.2,0,0,0,7.35,6,1.29,1.29,0,0,0,8.53,4.74a1,1,0,0,0-.6-.94A.71.71,0,0,0,7,4.26"/><path class="cls-2" d="M11.4,6.07a1.3,1.3,0,0,0-1.71.32,1.25,1.25,0,0,0,2,1.51,1.17,1.17,0,0,0,0-1.51,1,1,0,0,0-1.45.13"/><path class="cls-2" d="M13,9.36a1.51,1.51,0,0,0-2.15.72A1.51,1.51,0,0,0,12,12a1.52,1.52,0,0,0,1.62-1.6,1.54,1.54,0,0,0-1.92-1.23"/><path class="cls-2" d="M14,12.24l.12-.45a2,2,0,0,0-1.79,1.83,1.79,1.79,0,0,0,1.76,1.78,1.63,1.63,0,0,0,1.49-1.93,1.51,1.51,0,0,0-2.21-.87"/><path class="cls-2" d="M15.81,16.18l-.44-.79a3.24,3.24,0,0,0-1.45,1.23,1.23,1.23,0,0,0,.44,1.67,1.11,1.11,0,0,0,1.41-1,1.81,1.81,0,0,0-1.07-1.61"/><path class="cls-2" d="M13.5,13.23a.57.57,0,1,0,.16.32"/><path class="cls-2" d="M16.14,16.77a2.74,2.74,0,0,0-1.49,2.05c-.06.87.79,1.79,1.63,1.54a1.1,1.1,0,1,0-.82-2"/><path class="cls-2" d="M14.62,21a2.69,2.69,0,0,0-2.1,1.79,1.81,1.81,0,0,0,.07,1.41,1.15,1.15,0,0,0,1.19.62,1.3,1.3,0,0,0,.9-1.14,3.76,3.76,0,0,0-.24-1.52"/><path class="cls-2" d="M13.4,24.91a1.51,1.51,0,0,0-1.67,1.72,1.3,1.3,0,0,0,1.61,1,1.1,1.1,0,1,0-.88-2"/><path class="cls-2" d="M12.57,26.51A4.54,4.54,0,0,0,9,29c-.23.5-.31,1.2.15,1.48s1-.06,1.38-.39a2.48,2.48,0,0,0,.89-1.19.93.93,0,0,0-.66-1.16"/><path class="cls-2" d="M9.13,28.89a3.29,3.29,0,0,0-3.35,1.49,1.86,1.86,0,0,0-.29,1.25,1,1,0,0,0,.88.85,1.1,1.1,0,0,0,1-.71,3.26,3.26,0,0,0,.16-1.25"/><path class="cls-2" d="M5.61,30.45a2.56,2.56,0,0,0-3.27,1.31,1.69,1.69,0,0,0-.09,1.15,1,1,0,0,0,.83.74,1.12,1.12,0,0,0,1.1-.85A2.25,2.25,0,0,0,4,31.34"/><path class="cls-2" d="M15.65,20.64a2.62,2.62,0,0,0-1.05.9,1.23,1.23,0,0,0,0,1.32.94.94,0,1,0,.72-1.51"/></svg>