<?xml version="1.0" encoding="utf-8"?>
<!-- Generator: Adobe Illustrator 16.0.0, SVG Export Plug-In . SVG Version: 6.00 Build 0)  -->
<!DOCTYPE svg PUBLIC "-//W3C//DTD SVG 1.1//EN" "http://www.w3.org/Graphics/SVG/1.1/DTD/svg11.dtd">
<!-- <svg version="1.1" id="Ebene_1" xmlns="http://www.w3.org/2000/svg" xmlns:xlink="http://www.w3.org/1999/xlink" x="0px" y="0px"
	 width="100px" height="100px" viewBox="0 0 100 100" enable-background="new 0 0 100 100" xml:space="preserve">
<path fill="#009EE0" d="M13.149,5.669L12.244,4.71l0.009-0.008C9.482,1.815,5.512-0.003,1.192,0v0.012H0v14.989h1.192l0,0
	c0.125,0.004,0.17,0.029,0.262,0.112l0.021-0.02l0.793,0.841L13.149,5.669z"/>
</svg> -->

<!-- <svg id="Layer_1" data-name="Layer 1" xmlns="http://www.w3.org/2000/svg" xmlns:xlink="http://www.w3.org/1999/xlink" viewBox="0 0 100 100"><defs><style>.cls-1{fill:url(#Super_Soft_Black_Vignette);}</style><radialGradient id="Super_Soft_Black_Vignette" cx="5.65" cy="5.64" r="4.57" gradientUnits="userSpaceOnUse"><stop offset="0.57" stop-color="#130c0e" stop-opacity="0"/><stop offset="0.8" stop-color="#130c0e" stop-opacity="0.65"/><stop offset="0.82" stop-color="#130c0e" stop-opacity="0.7"/><stop offset="1" stop-color="#130c0e" stop-opacity="0.95"/></radialGradient></defs><circle class="cls-1" cx="5.65" cy="5.64" r="4.57"/></svg> -->

<!-- <svg id="Layer_1" data-name="Layer 1" xmlns="http://www.w3.org/2000/svg" viewBox="0 0 100 100"><defs><style>.cls-1{fill:none;stroke:#231f20;stroke-miterlimit:10;}</style></defs><circle class="cls-1" cx="5.65" cy="5.64" r="4.57"/></svg> -->

<!-- <svg id="Layer_1" data-name="Layer 1" xmlns="http://www.w3.org/2000/svg" viewBox="0 0 100 100"><defs><style>.cls-1{fill:#92278f;stroke:#fff200;stroke-miterlimit:10;}</style></defs><path class="cls-1" d="M7.65,5.81h0Z"/></svg> -->
<svg id="Layer_1" data-name="Layer 1" xmlns="http://www.w3.org/2000/svg" viewBox="0 0 100 100"><defs><style>.cls-1{fill:none;stroke:#fff200;stroke-miterlimit:10;stroke-width:0.5px;}</style></defs><path class="cls-1" d="M2.13,1.42a1.79,1.79,0,0,1,1.45.82A13.52,13.52,0,0,1,5.73,5.73"/><path class="cls-1" d="M2.49,4.59A6.17,6.17,0,0,1,7.71,2.32"/><path class="cls-1" d="M5.62.89A5.52,5.52,0,0,0,4.25,5.58"/><path class="cls-1" d="M2.08,2.83a10.6,10.6,0,0,0,2.7,0,4,4,0,0,1,2.57.6"/></svg>